<svg width="107" height="4" viewBox="0 0 107 4" fill="none" xmlns="http://www.w3.org/2000/svg">
<path d="M103.22 0.08001H103.762L105.035 3.19061H105.079L106.353 0.08001H106.895V3.82736H106.47V0.980252H106.433L105.262 3.82736H104.853L103.681 0.980252H103.645V3.82736H103.22V0.08001Z" fill="#0E7490"/>
<path d="M98.8526 3.82736V0.08001H101.114V0.482556H99.3064V1.74876H100.997V2.1513H99.3064V3.42482H101.143V3.82736H98.8526Z" fill="#0E7490"/>
<path d="M94.0533 0.482556V0.08001H96.8638V0.482556H95.6854V3.82736H95.2317V0.482556H94.0533Z" fill="#0E7490"/>
<path d="M91.7334 1.01689C91.7115 0.831471 91.6224 0.687533 91.4663 0.585066C91.3101 0.482599 91.1186 0.431361 90.8917 0.431361C90.7258 0.431361 90.5807 0.458194 90.4562 0.511867C90.333 0.56554 90.2367 0.639343 90.1671 0.733271C90.0988 0.827199 90.0647 0.93394 90.0647 1.05348C90.0647 1.15351 90.0885 1.23951 90.136 1.31148C90.1848 1.38223 90.247 1.4414 90.3227 1.48897C90.3983 1.53532 90.4776 1.57374 90.5605 1.60424C90.6435 1.63351 90.7197 1.6573 90.7893 1.6756L91.1698 1.77807C91.2674 1.80369 91.376 1.83906 91.4956 1.8842C91.6163 1.92933 91.7316 1.99093 91.8414 2.069C91.9524 2.14585 92.0439 2.24466 92.1158 2.36542C92.1878 2.48619 92.2238 2.63439 92.2238 2.81005C92.2238 3.01255 92.1707 3.19552 92.0646 3.35898C91.9597 3.52244 91.806 3.65235 91.6035 3.74872C91.4022 3.84509 91.1577 3.89327 90.8698 3.89327C90.6014 3.89327 90.369 3.84997 90.1726 3.76336C89.9775 3.67675 89.8238 3.55598 89.7115 3.40106C89.6005 3.24614 89.5377 3.06622 89.5231 2.86129H89.9915C90.0037 3.00279 90.0512 3.11989 90.1342 3.2126C90.2184 3.30409 90.3245 3.3724 90.4526 3.41753C90.5819 3.46145 90.721 3.4834 90.8698 3.4834C91.043 3.4834 91.1985 3.45535 91.3364 3.39924C91.4742 3.34191 91.5834 3.26262 91.6639 3.16137C91.7444 3.0589 91.7847 2.93936 91.7847 2.80274C91.7847 2.67831 91.7499 2.57707 91.6804 2.499C91.6108 2.42093 91.5193 2.35749 91.4059 2.30869C91.2924 2.2599 91.1699 2.2172 91.0381 2.18061L90.577 2.04888C90.2842 1.96471 90.0525 1.84455 89.8817 1.68841C89.7109 1.53227 89.6255 1.32794 89.6255 1.07544C89.6255 0.865623 89.6823 0.682645 89.7957 0.526505C89.9104 0.369145 90.0641 0.247165 90.2568 0.160556C90.4508 0.0727274 90.6673 0.0288086 90.9064 0.0288086C91.1479 0.0288086 91.3626 0.0721113 91.5504 0.15872C91.7383 0.244109 91.8871 0.361217 91.9969 0.510038C92.1079 0.658859 92.1665 0.827812 92.1726 1.01689H91.7334Z" fill="#0E7490"/>
<path d="M84.6473 0.08001H85.167L86.2063 1.82927H86.2502L87.2895 0.08001H87.8091L86.4551 2.28304V3.82736H86.0013V2.28304L84.6473 0.08001Z" fill="#0E7490"/>
<path d="M82.4451 1.01689C82.4231 0.831471 82.3341 0.687533 82.1779 0.585066C82.0218 0.482599 81.8303 0.431361 81.6034 0.431361C81.4375 0.431361 81.2923 0.458194 81.1679 0.511867C81.0447 0.56554 80.9483 0.639343 80.8788 0.733271C80.8105 0.827199 80.7763 0.93394 80.7763 1.05348C80.7763 1.15351 80.8001 1.23951 80.8477 1.31148C80.8965 1.38223 80.9587 1.4414 81.0343 1.48897C81.1099 1.53532 81.1892 1.57374 81.2722 1.60424C81.3551 1.63351 81.4314 1.6573 81.5009 1.6756L81.8815 1.77807C81.9791 1.80369 82.0876 1.83906 82.2072 1.8842C82.3279 1.92933 82.4432 1.99093 82.553 2.069C82.664 2.14585 82.7555 2.24466 82.8275 2.36542C82.8994 2.48619 82.9354 2.63439 82.9354 2.81005C82.9354 3.01255 82.8824 3.19552 82.7762 3.35898C82.6713 3.52244 82.5176 3.65235 82.3151 3.74872C82.1139 3.84509 81.8693 3.89327 81.5814 3.89327C81.313 3.89327 81.0807 3.84997 80.8843 3.76336C80.6891 3.67675 80.5354 3.55598 80.4232 3.40106C80.3122 3.24614 80.2493 3.06622 80.2347 2.86129H80.7031C80.7153 3.00279 80.7629 3.11989 80.8458 3.2126C80.93 3.30409 81.0361 3.3724 81.1642 3.41753C81.2935 3.46145 81.4326 3.4834 81.5814 3.4834C81.7546 3.4834 81.9102 3.45535 82.048 3.39924C82.1858 3.34191 82.295 3.26262 82.3755 3.16137C82.456 3.0589 82.4963 2.93936 82.4963 2.80274C82.4963 2.67831 82.4615 2.57707 82.392 2.499C82.3225 2.42093 82.231 2.35749 82.1175 2.30869C82.0041 2.2599 81.8815 2.2172 81.7497 2.18061L81.2886 2.04888C80.9959 1.96471 80.7641 1.84455 80.5933 1.68841C80.4226 1.53227 80.3372 1.32794 80.3372 1.07544C80.3372 0.865623 80.3939 0.682645 80.5073 0.526505C80.622 0.369145 80.7757 0.247165 80.9684 0.160556C81.1624 0.0727274 81.3789 0.0288086 81.618 0.0288086C81.8595 0.0288086 82.0742 0.0721113 82.2621 0.15872C82.4499 0.244109 82.5988 0.361217 82.7085 0.510038C82.8195 0.658859 82.8781 0.827812 82.8842 1.01689H82.4451Z" fill="#0E7490"/>
<path d="M73.4716 3.82736V0.08001H73.9254V3.42482H75.6673V3.82736H73.4716Z" fill="#0E7490"/>
<path d="M68.8551 3.82736H68.3794L69.7554 0.08001H70.2238L71.5998 3.82736H71.1241L70.0042 0.672855H69.975L68.8551 3.82736ZM69.3748 2.36356H70.6044L70.7473 2.7661H69.2319L69.3748 2.36356Z" fill="#0E7490"/>
<path d="M64.3402 0.482556V0.08001H67.1508V0.482556H65.9724V3.82736H65.5186V0.482556H64.3402Z" fill="#0E7490"/>
<path d="M62.3475 0.08001V3.82736H61.8937V0.08001H62.3475Z" fill="#0E7490"/>
<path d="M59.3379 1.25109C59.2976 1.12789 59.2446 1.0175 59.1787 0.91991C59.114 0.821102 59.0366 0.736936 58.9463 0.667405C58.8573 0.597874 58.756 0.544811 58.6426 0.508216C58.5291 0.471621 58.4047 0.453318 58.2693 0.453318C58.0473 0.453318 57.8454 0.510646 57.6637 0.625311C57.4819 0.739977 57.3373 0.90893 57.23 1.13216C57.1227 1.35539 57.069 1.62925 57.069 1.95373C57.069 2.2782 57.1233 2.55205 57.2318 2.77528C57.3404 2.99851 57.4874 3.16747 57.6728 3.28213C57.8582 3.3968 58.0668 3.45413 58.2986 3.45413C58.5133 3.45413 58.7024 3.40839 58.8658 3.3169C59.0305 3.22419 59.1586 3.09367 59.2501 2.92533C59.3428 2.75577 59.3891 2.55632 59.3891 2.32699L59.5282 2.35628H58.4011V1.95373H59.8283V2.35628C59.8283 2.6649 59.7624 2.93326 59.6307 3.16137C59.5001 3.38948 59.3196 3.56635 59.089 3.692C58.8597 3.81642 58.5962 3.87863 58.2986 3.87863C57.9668 3.87863 57.6752 3.80056 57.424 3.64442C57.1739 3.48828 56.9787 3.26628 56.8384 2.97839C56.6994 2.69051 56.6298 2.34896 56.6298 1.95373C56.6298 1.6573 56.6695 1.39076 56.7488 1.15411C56.8293 0.916243 56.9427 0.713753 57.0891 0.546635C57.2355 0.379516 57.4087 0.251432 57.6088 0.162383C57.8088 0.0733346 58.029 0.0288086 58.2693 0.0288086C58.4669 0.0288086 58.6511 0.0587021 58.8219 0.118474C58.9939 0.177027 59.147 0.260578 59.2812 0.369144C59.4166 0.476491 59.5294 0.605189 59.6197 0.75523C59.7099 0.904051 59.7721 1.06933 59.8063 1.25109H59.3379Z" fill="#0E7490"/>
<path d="M54.578 0.08001V3.82736H54.1242V0.08001H54.578Z" fill="#0E7490"/>
<path d="M50.2891 3.82736H49.1327V0.08001H50.3403C50.7039 0.08001 51.0149 0.155032 51.2735 0.305072C51.5321 0.453893 51.7304 0.667974 51.8682 0.947318C52.006 1.22544 52.075 1.55846 52.075 1.94637C52.075 2.33672 52.0054 2.67278 51.8664 2.95457C51.7273 3.23513 51.5248 3.45104 51.2589 3.6023C50.993 3.75234 50.6697 3.82736 50.2891 3.82736ZM49.5865 3.42482H50.2598C50.5697 3.42482 50.8265 3.36505 51.0302 3.2455C51.2339 3.12596 51.3857 2.95579 51.4858 2.735C51.5858 2.5142 51.6358 2.25133 51.6358 1.94637C51.6358 1.64385 51.5864 1.38341 51.4876 1.16506C51.3888 0.94549 51.2412 0.777151 51.0448 0.660046C50.8484 0.541721 50.6038 0.482556 50.3111 0.482556H49.5865V3.42482Z" fill="#0E7490"/>
<path d="M44.3741 1.25109H43.9203C43.8935 1.12057 43.8465 1.00591 43.7794 0.907099C43.7135 0.808291 43.633 0.725342 43.5379 0.658251C43.4439 0.589939 43.3396 0.538709 43.225 0.504553C43.1103 0.470397 42.9908 0.453318 42.8663 0.453318C42.6395 0.453318 42.4339 0.510646 42.2497 0.625311C42.0667 0.739977 41.921 0.90893 41.8124 1.13216C41.7051 1.35539 41.6514 1.62925 41.6514 1.95373C41.6514 2.2782 41.7051 2.55205 41.8124 2.77528C41.921 2.99851 42.0667 3.16747 42.2497 3.28213C42.4339 3.3968 42.6395 3.45413 42.8663 3.45413C42.9908 3.45413 43.1103 3.43705 43.225 3.4029C43.3396 3.36874 43.4439 3.31812 43.5379 3.25103C43.633 3.18272 43.7135 3.09915 43.7794 3.00034C43.8465 2.90032 43.8935 2.78566 43.9203 2.65635H44.3741C44.3399 2.84787 44.2777 3.01926 44.1874 3.17052C44.0972 3.32178 43.9849 3.45047 43.8508 3.5566C43.7166 3.66151 43.5659 3.7414 43.3988 3.79629C43.2329 3.85119 43.0554 3.87863 42.8663 3.87863C42.5467 3.87863 42.2625 3.80056 42.0137 3.64442C41.7648 3.48828 41.569 3.26628 41.4263 2.97839C41.2836 2.69051 41.2122 2.34896 41.2122 1.95373C41.2122 1.5585 41.2836 1.21694 41.4263 0.929058C41.569 0.641175 41.7648 0.419166 42.0137 0.263026C42.2625 0.106886 42.5467 0.0288086 42.8663 0.0288086C43.0554 0.0288086 43.2329 0.0562554 43.3988 0.111148C43.5659 0.166041 43.7166 0.246551 43.8508 0.352677C43.9849 0.457584 44.0972 0.585667 44.1874 0.736927C44.2777 0.886968 44.3399 1.05836 44.3741 1.25109Z" fill="#0E7490"/>
<path d="M39.1604 0.08001V3.82736H38.7066V0.08001H39.1604Z" fill="#0E7490"/>
<path d="M36.1817 1.01689C36.1598 0.831471 36.0707 0.687533 35.9146 0.585066C35.7585 0.482599 35.5669 0.431361 35.3401 0.431361C35.1742 0.431361 35.029 0.458194 34.9046 0.511867C34.7814 0.56554 34.685 0.639343 34.6155 0.733271C34.5472 0.827199 34.513 0.93394 34.513 1.05348C34.513 1.15351 34.5368 1.23951 34.5844 1.31148C34.6332 1.38223 34.6954 1.4414 34.771 1.48897C34.8466 1.53532 34.9259 1.57374 35.0089 1.60424C35.0918 1.63351 35.1681 1.6573 35.2376 1.6756L35.6182 1.77807C35.7158 1.80369 35.8243 1.83906 35.9439 1.8842C36.0646 1.92933 36.1799 1.99093 36.2897 2.069C36.4007 2.14585 36.4922 2.24466 36.5642 2.36542C36.6361 2.48619 36.6721 2.63439 36.6721 2.81005C36.6721 3.01255 36.6191 3.19552 36.5129 3.35898C36.408 3.52244 36.2543 3.65235 36.0518 3.74872C35.8506 3.84509 35.606 3.89327 35.3181 3.89327C35.0497 3.89327 34.8173 3.84997 34.621 3.76336C34.4258 3.67675 34.2721 3.55598 34.1599 3.40106C34.0488 3.24614 33.986 3.06622 33.9714 2.86129H34.4398C34.452 3.00279 34.4996 3.11989 34.5825 3.2126C34.6667 3.30409 34.7728 3.3724 34.9009 3.41753C35.0302 3.46145 35.1693 3.4834 35.3181 3.4834C35.4913 3.4834 35.6468 3.45535 35.7847 3.39924C35.9225 3.34191 36.0317 3.26262 36.1122 3.16137C36.1927 3.0589 36.233 2.93936 36.233 2.80274C36.233 2.67831 36.1982 2.57707 36.1287 2.499C36.0591 2.42093 35.9677 2.35749 35.8542 2.30869C35.7408 2.2599 35.6182 2.2172 35.4864 2.18061L35.0253 2.04888C34.7326 1.96471 34.5008 1.84455 34.33 1.68841C34.1592 1.53227 34.0738 1.32794 34.0738 1.07544C34.0738 0.865623 34.1306 0.682645 34.244 0.526505C34.3587 0.369145 34.5124 0.247165 34.7051 0.160556C34.8991 0.0727274 35.1156 0.0288086 35.3547 0.0288086C35.5962 0.0288086 35.8109 0.0721113 35.9988 0.15872C36.1866 0.244109 36.3354 0.361217 36.4452 0.510038C36.5562 0.658859 36.6148 0.827812 36.6209 1.01689H36.1817Z" fill="#0E7490"/>
<path d="M29.7652 3.82736V0.08001H32.0268V0.482556H30.219V1.74876H31.9097V2.1513H30.219V3.42482H32.056V3.82736H29.7652Z" fill="#0E7490"/>
<path d="M24.6629 3.82736V0.08001H25.1167V1.74875H27.1148V0.08001H27.5686V3.82736H27.1148V2.1513H25.1167V3.82736H24.6629Z" fill="#0E7490"/>
<path d="M19.864 0.482556V0.08001H22.6745V0.482556H21.4962V3.82736H21.0424V0.482556H19.864Z" fill="#0E7490"/>
<path d="M17.5442 1.01689C17.5222 0.831471 17.4331 0.687533 17.277 0.585066C17.1209 0.482599 16.9294 0.431361 16.7025 0.431361C16.5366 0.431361 16.3914 0.458194 16.267 0.511867C16.1438 0.56554 16.0474 0.639343 15.9779 0.733271C15.9096 0.827199 15.8754 0.93394 15.8754 1.05348C15.8754 1.15351 15.8992 1.23951 15.9468 1.31148C15.9956 1.38223 16.0578 1.4414 16.1334 1.48897C16.209 1.53532 16.2883 1.57374 16.3713 1.60424C16.4542 1.63351 16.5305 1.6573 16.6 1.6756L16.9806 1.77807C17.0782 1.80369 17.1867 1.83906 17.3063 1.8842C17.427 1.92933 17.5423 1.99093 17.6521 2.069C17.7631 2.14585 17.8546 2.24466 17.9266 2.36542C17.9985 2.48619 18.0345 2.63439 18.0345 2.81005C18.0345 3.01255 17.9815 3.19552 17.8753 3.35898C17.7704 3.52244 17.6167 3.65235 17.4142 3.74872C17.213 3.84509 16.9684 3.89327 16.6805 3.89327C16.4121 3.89327 16.1798 3.84997 15.9834 3.76336C15.7882 3.67675 15.6345 3.55598 15.5223 3.40106C15.4113 3.24614 15.3484 3.06622 15.3338 2.86129H15.8022C15.8144 3.00279 15.862 3.11989 15.9449 3.2126C16.0291 3.30409 16.1352 3.3724 16.2633 3.41753C16.3926 3.46145 16.5317 3.4834 16.6805 3.4834C16.8537 3.4834 17.0093 3.45535 17.1471 3.39924C17.2849 3.34191 17.3941 3.26262 17.4746 3.16137C17.5551 3.0589 17.5954 2.93936 17.5954 2.80274C17.5954 2.67831 17.5606 2.57707 17.4911 2.499C17.4216 2.42093 17.3301 2.35749 17.2166 2.30869C17.1032 2.2599 16.9806 2.2172 16.8488 2.18061L16.3877 2.04888C16.095 1.96471 15.8632 1.84455 15.6924 1.68841C15.5217 1.53227 15.4363 1.32794 15.4363 1.07544C15.4363 0.865623 15.493 0.682645 15.6064 0.526505C15.7211 0.369145 15.8748 0.247165 16.0675 0.160556C16.2615 0.0727274 16.478 0.0288086 16.7171 0.0288086C16.9586 0.0288086 17.1733 0.0721113 17.3612 0.15872C17.549 0.244109 17.6979 0.361217 17.8076 0.510038C17.9186 0.658859 17.9772 0.827812 17.9833 1.01689H17.5442Z" fill="#0E7490"/>
<path d="M11.1271 3.82736V0.08001H13.3887V0.482556H11.5809V1.74876H13.2716V2.1513H11.5809V3.42482H13.418V3.82736H11.1271Z" fill="#0E7490"/>
<path d="M8.93094 0.08001V3.82736H8.4918L6.44978 0.885108H6.41318V3.82736H5.9594V0.08001H6.39854L8.44788 3.0296H8.48448V0.08001H8.93094Z" fill="#0E7490"/>
<path d="M1.34293 3.82736H0.867188L2.24317 0.08001H2.71159L4.08757 3.82736H3.61183L2.49202 0.67285H2.46274L1.34293 3.82736ZM1.86256 2.36355H3.08585L3.2351 2.7661H1.71966L1.86256 2.36355Z" fill="#0E7490"/>
</svg>
