<svg width="161" height="99" viewBox="0 0 161 99" fill="none" xmlns="http://www.w3.org/2000/svg">
<path d="M58.1793 40.0948C57.4636 39.3371 57.4977 38.1427 58.2554 37.427L67.5973 28.6037C68.355 27.8881 69.5494 27.9222 70.265 28.6799L79.0883 38.0218C79.804 38.7795 79.7699 39.9739 79.0122 40.6895L69.6703 49.5128C68.9126 50.2284 67.7182 50.1943 67.0026 49.4366L58.1793 40.0948Z" fill="#2DD4BF"/>
<path d="M73.4617 39.5345C72.746 38.7768 72.7801 37.5825 73.5378 36.8668L82.8797 28.0435C83.6374 27.3279 84.8318 27.362 85.5474 28.1197L94.3707 37.4615C95.0864 38.2192 95.0523 39.4136 94.2946 40.1293L84.9527 48.9526C84.195 49.6682 83.0006 49.6341 82.285 48.8764L73.4617 39.5345Z" fill="#00AEEF"/>
<path d="M65.1655 47.4035C64.4498 46.6458 64.4839 45.4515 65.2416 44.7358L74.5835 35.9125C75.3412 35.1969 76.5356 35.231 77.2512 35.9887L86.0745 45.3306C86.7902 46.0883 86.7561 47.2826 85.9984 47.9983L76.6565 56.8216C75.8988 57.5372 74.7044 57.5031 73.9888 56.7454L65.1655 47.4035Z" fill="#0E7490"/>
<path d="M90.2602 27.8012C89.9024 27.4224 89.9194 26.8252 90.2983 26.4673L92.8165 24.089C93.1953 23.7311 93.7925 23.7482 94.1503 24.127L96.5287 26.6452C96.8865 27.0241 96.8695 27.6213 96.4906 27.9791L93.9724 30.3575C93.5936 30.7153 92.9964 30.6982 92.6386 30.3194L90.2602 27.8012Z" fill="#2DD4BF"/>
<path d="M100.067 25.9917C99.8878 25.8023 99.8963 25.5037 100.086 25.3248L101.737 23.765C101.927 23.5861 102.225 23.5946 102.404 23.7841L103.964 25.4355C104.143 25.6249 104.134 25.9235 103.945 26.1024L102.293 27.6622C102.104 27.8411 101.805 27.8326 101.626 27.6431L100.067 25.9917Z" fill="#F9B916"/>
<path d="M95.9105 18.5876C95.7316 18.3981 95.7401 18.0995 95.9295 17.9206L97.9926 15.9721C98.1821 15.7932 98.4806 15.8017 98.6596 15.9911L100.608 18.0542C100.787 18.2436 100.779 18.5422 100.589 18.7211L98.526 20.6697C98.3366 20.8486 98.038 20.8401 97.8591 20.6506L95.9105 18.5876Z" fill="#00AEEF"/>
<path d="M92.6331 31.2749C93.6172 32.3194 93.5693 33.9789 92.5263 34.9759L78.3337 48.5525C77.3014 49.5498 75.6627 49.5025 74.6788 48.447L67.9803 41.2608C66.9961 40.2162 67.0548 38.5571 68.0871 37.5598C69.1194 36.5624 70.7581 36.6097 71.742 37.6652L76.6612 42.9426L88.9782 31.1694C90.0104 30.1721 91.6489 30.2303 92.6331 31.2749Z" fill="#EBEBEB"/>
<path d="M106.619 68.7954C108.212 68.7955 109.409 69.1704 110.184 69.9448C110.958 70.7194 111.334 71.9199 111.334 73.52V78.3374C111.334 79.9308 110.959 81.1312 110.185 81.9126H110.184C109.409 82.687 108.212 83.0629 106.619 83.063H104.095C102.501 83.063 101.301 82.6875 100.52 81.9136L100.519 81.9126C99.7445 81.1312 99.3692 79.9309 99.3691 78.3374V73.4995C99.3691 71.8925 99.7444 70.6912 100.52 69.9233C101.301 69.1492 102.498 68.7824 104.084 68.7964V68.7954H106.619ZM104.083 70.5786C103.327 70.5717 102.742 70.6623 102.322 70.8423L102.32 70.8433C101.908 71.0134 101.611 71.3055 101.427 71.7261C101.246 72.1467 101.153 72.7358 101.153 73.4995V78.3374C101.153 79.1007 101.247 79.6926 101.428 80.1206L101.499 80.27C101.68 80.6056 101.95 80.8493 102.312 81.0044H102.311C102.739 81.185 103.331 81.2788 104.095 81.2788H106.619C107.375 81.2788 107.96 81.1847 108.381 81.0044H108.382C108.802 80.8269 109.098 80.5334 109.275 80.1206L109.339 79.9526C109.478 79.5422 109.55 79.0054 109.55 78.3374V73.52C109.55 72.7636 109.456 72.179 109.275 71.7583V71.7573C109.098 71.3374 108.802 71.041 108.382 70.8638L108.379 70.8628C107.959 70.6762 107.375 70.5786 106.619 70.5786H104.083Z" fill="#0E7490" stroke="#0E7490" stroke-width="0.237921"/>
<path d="M88.0166 67.2646C88.2267 67.1825 88.4688 67.2125 88.7295 67.3242H88.7305C88.9727 67.4302 89.1443 67.586 89.2227 67.7979H89.2236C89.3094 68.0036 89.2915 68.237 89.1934 68.4863L89.1875 68.502L89.1777 68.5146L78.6963 82.5361C78.6003 82.7377 78.4795 82.8977 78.3281 83.0078C78.1714 83.1218 77.99 83.1777 77.7881 83.1777H77.6934C77.3126 83.1777 77.0325 82.9428 76.8457 82.5342L72.1045 76.1221L72.0967 76.1123L72.0918 76.1006C71.9791 75.8526 71.9474 75.6183 72.0254 75.4102L72.0264 75.4072C72.112 75.1934 72.2963 75.0383 72.5518 74.9326C72.8064 74.8203 73.0451 74.7904 73.2539 74.873C73.4581 74.954 73.6062 75.1327 73.7109 75.3789L77.8291 80.7119L87.5596 67.7705C87.6612 67.5239 87.8103 67.3455 88.0166 67.2646Z" fill="#2DD4BF" stroke="#2DD4BF" stroke-width="0.237921"/>
<path d="M56.8057 68.8057C57.0823 68.8057 57.3109 68.8734 57.4678 69.0303C57.6252 69.1877 57.6924 69.4205 57.6924 69.7031V82.166C57.6923 82.4428 57.6248 82.673 57.4707 82.8359L57.4678 82.8389C57.3109 82.9956 57.0821 83.0625 56.8057 83.0625C56.5284 83.0625 56.2978 82.9953 56.1348 82.8408L56.1299 82.8369L56.2168 82.7549L56.1299 82.8359C55.9758 82.673 55.9083 82.4428 55.9082 82.166V69.7031C55.9082 69.4205 55.9754 69.1877 56.1328 69.0303L56.1348 69.0273C56.2978 68.873 56.5285 68.8057 56.8057 68.8057Z" fill="#0E7490" stroke="#0E7490" stroke-width="0.237921"/>
<path d="M38.4219 68.7949C38.6965 68.7949 38.9249 68.8652 39.083 69.0254C39.2406 69.1853 39.3086 69.4152 39.3086 69.6924V82.165C39.3086 82.4424 39.2408 82.6731 39.083 82.833C38.9249 82.9932 38.6965 83.0625 38.4219 83.0625C38.1331 83.0624 37.875 82.9219 37.6465 82.6689L37.5498 82.5537L29.5283 72.2402V82.165C29.5283 82.4424 29.4595 82.6731 29.3018 82.833C29.1437 82.993 28.916 83.0625 28.6416 83.0625C28.3638 83.0625 28.1335 82.9929 27.9736 82.833C27.8138 82.6731 27.7441 82.4427 27.7441 82.165V69.6924C27.7441 69.4146 27.8137 69.1843 27.9736 69.0244C28.1335 68.8645 28.3638 68.7949 28.6416 68.7949C28.919 68.7949 29.1757 68.9363 29.4121 69.1875L29.5117 69.3018L29.5137 69.3037L37.5254 79.6172V69.6924C37.5254 69.4146 37.595 69.1843 37.7549 69.0244C37.9147 68.8648 38.1444 68.795 38.4219 68.7949Z" fill="#0E7490" stroke="#0E7490" stroke-width="0.237921"/>
<path d="M127.348 70.1549C127.348 69.5337 127.658 69.2231 128.279 69.2231C128.901 69.2231 129.211 69.5337 129.211 70.1549V80.0319C129.211 80.6531 128.901 80.9637 128.279 80.9637C127.658 80.9637 127.348 80.6531 127.348 80.0319V70.1549ZM123.088 76.1716C122.467 76.1716 122.156 75.861 122.156 75.2398C122.156 74.6186 122.467 74.308 123.088 74.308H132.965C133.586 74.308 133.897 74.6186 133.897 75.2398C133.897 75.861 133.586 76.1716 132.965 76.1716H123.088ZM123.088 76.1716C122.467 76.1716 122.156 75.861 122.156 75.2398C122.156 74.6186 122.467 74.308 123.088 74.308H132.965C133.586 74.308 133.897 74.6186 133.897 75.2398C133.897 75.861 133.586 76.1716 132.965 76.1716H123.088Z" fill="#F9B916"/>
</svg>
